<mxfile host="Electron" modified="2023-11-14T11:22:30.254Z" agent="Mozilla/5.0 (Windows NT 10.0; Win64; x64) AppleWebKit/537.36 (KHTML, like Gecko) draw.io/22.0.3 Chrome/114.0.5735.289 Electron/25.8.4 Safari/537.36" etag="kbEUO0d8OLXg_MKFx_Fz" version="22.0.3" type="device">
  <diagram name="Page-1" id="RmqzjweWOwWSWyr8l0gN">
    <mxGraphModel dx="1418" dy="673" grid="1" gridSize="10" guides="1" tooltips="1" connect="1" arrows="1" fold="1" page="1" pageScale="1" pageWidth="850" pageHeight="1100" math="0" shadow="0">
      <root>
        <mxCell id="0" />
        <mxCell id="1" parent="0" />
        <mxCell id="zXGzGF0miHII9YlHp3UR-1" value="Wesminster Shopping Centre" style="shape=umlFrame;whiteSpace=wrap;html=1;pointerEvents=0;recursiveResize=0;container=1;collapsible=0;width=200;height=30;" parent="1" vertex="1">
          <mxGeometry x="90" y="140" width="700" height="680" as="geometry" />
        </mxCell>
      </root>
    </mxGraphModel>
  </diagram>
</mxfile>
